<svg width="1280" height="923" xmlns="http://www.w3.org/2000/svg"><g><path d="M-105.28665379621089,-57.49150534160435L-132.11134085431695,112.40059540607035L73.0668914783746,49.59807858802378Z" fill="#f9fef7" stroke="#f9fef7" fill-opacity="1" stroke-opacity="1"/><path d="M-105.28665379621089,-57.49150534160435L73.0668914783746,49.59807858802378L63.46698001027107,-90.76345765963197Z" fill="#f5fbf3" stroke="#f5fbf3" fill-opacity="1" stroke-opacity="1"/><path d="M63.46698001027107,-90.76345765963197L73.0668914783746,49.59807858802378L191.16879899986088,-42.063765143975616Z" fill="#ebf7e8" stroke="#ebf7e8" fill-opacity="1" stroke-opacity="1"/><path d="M63.46698001027107,-90.76345765963197L191.16879899986088,-42.063765143975616L499.56414327956736,-96.84495809487998Z" fill="#dcf1d9" stroke="#dcf1d9" fill-opacity="1" stroke-opacity="1"/><path d="M63.46698001027107,-90.76345765963197L499.56414327956736,-96.84495809487998L813.9774194452912,-124.66989604756236Z" fill="#c5e7c4" stroke="#c5e7c4" fill-opacity="1" stroke-opacity="1"/><path d="M191.16879899986088,-42.063765143975616L73.0668914783746,49.59807858802378L226.3944498449564,106.84190260246396Z" fill="#e3f5de" stroke="#e3f5de" fill-opacity="1" stroke-opacity="1"/><path d="M191.16879899986088,-42.063765143975616L226.3944498449564,106.84190260246396L328.2746909279376,63.90167637728155Z" fill="#d9f1d5" stroke="#d9f1d5" fill-opacity="1" stroke-opacity="1"/><path d="M191.16879899986088,-42.063765143975616L328.2746909279376,63.90167637728155L406.8521258700639,-32.177914744243026Z" fill="#d6efd3" stroke="#d6efd3" fill-opacity="1" stroke-opacity="1"/><path d="M191.16879899986088,-42.063765143975616L406.8521258700639,-32.177914744243026L499.56414327956736,-96.84495809487998Z" fill="#d0eccd" stroke="#d0eccd" fill-opacity="1" stroke-opacity="1"/><path d="M406.8521258700639,-32.177914744243026L328.2746909279376,63.90167637728155L501.0790400952101,108.5988400876522Z" fill="#c8eac4" stroke="#c8eac4" fill-opacity="1" stroke-opacity="1"/><path d="M406.8521258700639,-32.177914744243026L501.0790400952101,108.5988400876522L499.56414327956736,-96.84495809487998Z" fill="#c4e6c3" stroke="#c4e6c3" fill-opacity="1" stroke-opacity="1"/><path d="M499.56414327956736,-96.84495809487998L501.0790400952101,108.5988400876522L701.723201572895,119.73362345248461Z" fill="#b4e0b5" stroke="#b4e0b5" fill-opacity="1" stroke-opacity="1"/><path d="M499.56414327956736,-96.84495809487998L701.723201572895,119.73362345248461L726.9516290165484,-89.52116659842432Z" fill="#addbb4" stroke="#addbb4" fill-opacity="1" stroke-opacity="1"/><path d="M499.56414327956736,-96.84495809487998L726.9516290165484,-89.52116659842432L813.9774194452912,-124.66989604756236Z" fill="#a7d9b2" stroke="#a7d9b2" fill-opacity="1" stroke-opacity="1"/><path d="M726.9516290165484,-89.52116659842432L701.723201572895,119.73362345248461L809.1868221480399,80.00951240770519Z" fill="#9dd4aa" stroke="#9dd4aa" fill-opacity="1" stroke-opacity="1"/><path d="M726.9516290165484,-89.52116659842432L809.1868221480399,80.00951240770519L813.9774194452912,-124.66989604756236Z" fill="#9cd1ab" stroke="#9cd1ab" fill-opacity="1" stroke-opacity="1"/><path d="M813.9774194452912,-124.66989604756236L809.1868221480399,80.00951240770519L937.3078265972435,22.44666044600308Z" fill="#96cba6" stroke="#96cba6" fill-opacity="1" stroke-opacity="1"/><path d="M813.9774194452912,-124.66989604756236L937.3078265972435,22.44666044600308L1030.1000420283526,-61.49557071737945Z" fill="#90c4a2" stroke="#90c4a2" fill-opacity="1" stroke-opacity="1"/><path d="M813.9774194452912,-124.66989604756236L1030.1000420283526,-61.49557071737945L1420.9930439852178,-89.18781448155642Z" fill="#81ae99" stroke="#81ae99" fill-opacity="1" stroke-opacity="1"/><path d="M1030.1000420283526,-61.49557071737945L937.3078265972435,22.44666044600308L1076.2023509200662,-46.64420071989298Z" fill="#88b89d" stroke="#88b89d" fill-opacity="1" stroke-opacity="1"/><path d="M1030.1000420283526,-61.49557071737945L1076.2023509200662,-46.64420071989298L1262.0649814233184,-37.22612667828798Z" fill="#80a997" stroke="#80a997" fill-opacity="1" stroke-opacity="1"/><path d="M1030.1000420283526,-61.49557071737945L1262.0649814233184,-37.22612667828798L1420.9930439852178,-89.18781448155642Z" fill="#809a91" stroke="#809a91" fill-opacity="1" stroke-opacity="1"/><path d="M1076.2023509200662,-46.64420071989298L937.3078265972435,22.44666044600308L1154.9547015689313,110.60306807979941Z" fill="#82b298" stroke="#82b298" fill-opacity="1" stroke-opacity="1"/><path d="M1076.2023509200662,-46.64420071989298L1154.9547015689313,110.60306807979941L1262.0649814233184,-37.22612667828798Z" fill="#7fa494" stroke="#7fa494" fill-opacity="1" stroke-opacity="1"/><path d="M1262.0649814233184,-37.22612667828798L1154.9547015689313,110.60306807979941L1234.1997220739722,97.82798795029521Z" fill="#7c9d8d" stroke="#7c9d8d" fill-opacity="1" stroke-opacity="1"/><path d="M1262.0649814233184,-37.22612667828798L1234.1997220739722,97.82798795029521L1441.988725187257,89.41949201747775Z" fill="#7c9089" stroke="#7c9089" fill-opacity="1" stroke-opacity="1"/><path d="M1262.0649814233184,-37.22612667828798L1441.988725187257,89.41949201747775L1420.9930439852178,-89.18781448155642Z" fill="#80888a" stroke="#80888a" fill-opacity="1" stroke-opacity="1"/><path d="M1420.9930439852178,-89.18781448155642L1441.988725187257,89.41949201747775L1460.8295497857034,207.5285442173481Z" fill="#7b8080" stroke="#7b8080" fill-opacity="1" stroke-opacity="1"/><path d="M-132.11134085431695,112.40059540607035L-107.39188159815967,1023.2838200312108L-112.7449201606214,425.870942696929Z" fill="#a8e7b8" stroke="#a8e7b8" fill-opacity="1" stroke-opacity="1"/><path d="M-132.11134085431695,112.40059540607035L-112.7449201606214,425.870942696929L-118.45269142650068,273.4892483521253Z" fill="#deffdb" stroke="#deffdb" fill-opacity="1" stroke-opacity="1"/><path d="M-132.11134085431695,112.40059540607035L-118.45269142650068,273.4892483521253L23.745878459885716,274.7761732991785Z" fill="#e6ffe1" stroke="#e6ffe1" fill-opacity="1" stroke-opacity="1"/><path d="M-132.11134085431695,112.40059540607035L23.745878459885716,274.7761732991785L73.0668914783746,49.59807858802378Z" fill="#ecfce6" stroke="#ecfce6" fill-opacity="1" stroke-opacity="1"/><path d="M73.0668914783746,49.59807858802378L23.745878459885716,274.7761732991785L173.15080937929451,201.00529479794204Z" fill="#dcf8d6" stroke="#dcf8d6" fill-opacity="1" stroke-opacity="1"/><path d="M73.0668914783746,49.59807858802378L173.15080937929451,201.00529479794204L226.3944498449564,106.84190260246396Z" fill="#def5d7" stroke="#def5d7" fill-opacity="1" stroke-opacity="1"/><path d="M226.3944498449564,106.84190260246396L173.15080937929451,201.00529479794204L378.88262185268104,247.825964698568Z" fill="#c9f1c2" stroke="#c9f1c2" fill-opacity="1" stroke-opacity="1"/><path d="M226.3944498449564,106.84190260246396L378.88262185268104,247.825964698568L328.2746909279376,63.90167637728155Z" fill="#cbefc4" stroke="#cbefc4" fill-opacity="1" stroke-opacity="1"/><path d="M328.2746909279376,63.90167637728155L378.88262185268104,247.825964698568L501.0790400952101,108.5988400876522Z" fill="#c1eabb" stroke="#c1eabb" fill-opacity="1" stroke-opacity="1"/><path d="M501.0790400952101,108.5988400876522L378.88262185268104,247.825964698568L520.9891649801284,259.7261819522828Z" fill="#aee6aa" stroke="#aee6aa" fill-opacity="1" stroke-opacity="1"/><path d="M501.0790400952101,108.5988400876522L520.9891649801284,259.7261819522828L677.9334415867925,212.50871915370226Z" fill="#a4e1a2" stroke="#a4e1a2" fill-opacity="1" stroke-opacity="1"/><path d="M501.0790400952101,108.5988400876522L677.9334415867925,212.50871915370226L701.723201572895,119.73362345248461Z" fill="#a3dca6" stroke="#a3dca6" fill-opacity="1" stroke-opacity="1"/><path d="M701.723201572895,119.73362345248461L677.9334415867925,212.50871915370226L826.189763462171,233.04778223857284Z" fill="#8dd597" stroke="#8dd597" fill-opacity="1" stroke-opacity="1"/><path d="M701.723201572895,119.73362345248461L826.189763462171,233.04778223857284L809.1868221480399,80.00951240770519Z" fill="#91d19c" stroke="#91d19c" fill-opacity="1" stroke-opacity="1"/><path d="M809.1868221480399,80.00951240770519L826.189763462171,233.04778223857284L923.7608345132321,171.17239066399634Z" fill="#88cb94" stroke="#88cb94" fill-opacity="1" stroke-opacity="1"/><path d="M809.1868221480399,80.00951240770519L923.7608345132321,171.17239066399634L937.3078265972435,22.44666044600308Z" fill="#8dc79b" stroke="#8dc79b" fill-opacity="1" stroke-opacity="1"/><path d="M937.3078265972435,22.44666044600308L923.7608345132321,171.17239066399634L1154.9547015689313,110.60306807979941Z" fill="#82b994" stroke="#82b994" fill-opacity="1" stroke-opacity="1"/><path d="M1154.9547015689313,110.60306807979941L923.7608345132321,171.17239066399634L1143.809668617323,236.15315482020378Z" fill="#72b086" stroke="#72b086" fill-opacity="1" stroke-opacity="1"/><path d="M1154.9547015689313,110.60306807979941L1143.809668617323,236.15315482020378L1234.1997220739722,97.82798795029521Z" fill="#74a285" stroke="#74a285" fill-opacity="1" stroke-opacity="1"/><path d="M1234.1997220739722,97.82798795029521L1143.809668617323,236.15315482020378L1334.90449430421,211.51933265849948Z" fill="#6e9a7c" stroke="#6e9a7c" fill-opacity="1" stroke-opacity="1"/><path d="M1234.1997220739722,97.82798795029521L1334.90449430421,211.51933265849948L1441.988725187257,89.41949201747775Z" fill="#778d7f" stroke="#778d7f" fill-opacity="1" stroke-opacity="1"/><path d="M1441.988725187257,89.41949201747775L1334.90449430421,211.51933265849948L1460.8295497857034,207.5285442173481Z" fill="#708275" stroke="#708275" fill-opacity="1" stroke-opacity="1"/><path d="M-118.45269142650068,273.4892483521253L-112.7449201606214,425.870942696929L23.745878459885716,274.7761732991785Z" fill="#d1facf" stroke="#d1facf" fill-opacity="1" stroke-opacity="1"/><path d="M23.745878459885716,274.7761732991785L-112.7449201606214,425.870942696929L-17.401766600087285,505.993132609874Z" fill="#bef2be" stroke="#bef2be" fill-opacity="1" stroke-opacity="1"/><path d="M23.745878459885716,274.7761732991785L-17.401766600087285,505.993132609874L115.3179454151541,423.14232509583235Z" fill="#b6efb6" stroke="#b6efb6" fill-opacity="1" stroke-opacity="1"/><path d="M23.745878459885716,274.7761732991785L115.3179454151541,423.14232509583235L233.37760563008487,359.44803264923394Z" fill="#b8f0b4" stroke="#b8f0b4" fill-opacity="1" stroke-opacity="1"/><path d="M23.745878459885716,274.7761732991785L233.37760563008487,359.44803264923394L173.15080937929451,201.00529479794204Z" fill="#c5f5bf" stroke="#c5f5bf" fill-opacity="1" stroke-opacity="1"/><path d="M173.15080937929451,201.00529479794204L233.37760563008487,359.44803264923394L378.88262185268104,247.825964698568Z" fill="#bbf0b4" stroke="#bbf0b4" fill-opacity="1" stroke-opacity="1"/><path d="M378.88262185268104,247.825964698568L233.37760563008487,359.44803264923394L354.48959682136774,341.2179595325142Z" fill="#abeaa6" stroke="#abeaa6" fill-opacity="1" stroke-opacity="1"/><path d="M378.88262185268104,247.825964698568L354.48959682136774,341.2179595325142L520.9891649801284,259.7261819522828Z" fill="#a6e8a2" stroke="#a6e8a2" fill-opacity="1" stroke-opacity="1"/><path d="M520.9891649801284,259.7261819522828L354.48959682136774,341.2179595325142L500.00095644034445,408.4640196338296Z" fill="#96e195" stroke="#96e195" fill-opacity="1" stroke-opacity="1"/><path d="M520.9891649801284,259.7261819522828L500.00095644034445,408.4640196338296L625.4674044717103,431.91694364883006Z" fill="#85da87" stroke="#85da87" fill-opacity="1" stroke-opacity="1"/><path d="M520.9891649801284,259.7261819522828L625.4674044717103,431.91694364883006L677.9334415867925,212.50871915370226Z" fill="#8adb8d" stroke="#8adb8d" fill-opacity="1" stroke-opacity="1"/><path d="M677.9334415867925,212.50871915370226L625.4674044717103,431.91694364883006L823.1941071432084,383.7022302020341Z" fill="#74d080" stroke="#74d080" fill-opacity="1" stroke-opacity="1"/><path d="M677.9334415867925,212.50871915370226L823.1941071432084,383.7022302020341L826.189763462171,233.04778223857284Z" fill="#7bd086" stroke="#7bd086" fill-opacity="1" stroke-opacity="1"/><path d="M826.189763462171,233.04778223857284L823.1941071432084,383.7022302020341L987.7387291286141,367.4600769672543Z" fill="#68c377" stroke="#68c377" fill-opacity="1" stroke-opacity="1"/><path d="M826.189763462171,233.04778223857284L987.7387291286141,367.4600769672543L923.7608345132321,171.17239066399634Z" fill="#73c580" stroke="#73c580" fill-opacity="1" stroke-opacity="1"/><path d="M923.7608345132321,171.17239066399634L987.7387291286141,367.4600769672543L1143.809668617323,236.15315482020378Z" fill="#69b77b" stroke="#69b77b" fill-opacity="1" stroke-opacity="1"/><path d="M1143.809668617323,236.15315482020378L987.7387291286141,367.4600769672543L1121.6873772069812,429.0862783882767Z" fill="#51a869" stroke="#51a869" fill-opacity="1" stroke-opacity="1"/><path d="M1143.809668617323,236.15315482020378L1121.6873772069812,429.0862783882767L1278.678999133408,425.6642881035805Z" fill="#4c9961" stroke="#4c9961" fill-opacity="1" stroke-opacity="1"/><path d="M1143.809668617323,236.15315482020378L1278.678999133408,425.6642881035805L1334.90449430421,211.51933265849948Z" fill="#5b9669" stroke="#5b9669" fill-opacity="1" stroke-opacity="1"/><path d="M1334.90449430421,211.51933265849948L1278.678999133408,425.6642881035805L1416.0151307377964,383.21796032600105Z" fill="#51865c" stroke="#51865c" fill-opacity="1" stroke-opacity="1"/><path d="M1334.90449430421,211.51933265849948L1416.0151307377964,383.21796032600105L1460.8295497857034,207.5285442173481Z" fill="#5f8365" stroke="#5f8365" fill-opacity="1" stroke-opacity="1"/><path d="M1460.8295497857034,207.5285442173481L1416.0151307377964,383.21796032600105L1482.8284423984587,653.2618690934032Z" fill="#41734b" stroke="#41734b" fill-opacity="1" stroke-opacity="1"/><path d="M-112.7449201606214,425.870942696929L-107.39188159815967,1023.2838200312108L-65.75966242700815,829.0873060841113Z" fill="#85bca0" stroke="#85bca0" fill-opacity="1" stroke-opacity="1"/><path d="M-112.7449201606214,425.870942696929L-65.75966242700815,829.0873060841113L-23.59517952427268,619.9533568974584Z" fill="#97d7a9" stroke="#97d7a9" fill-opacity="1" stroke-opacity="1"/><path d="M-112.7449201606214,425.870942696929L-23.59517952427268,619.9533568974584L-17.401766600087285,505.993132609874Z" fill="#a5e5b3" stroke="#a5e5b3" fill-opacity="1" stroke-opacity="1"/><path d="M115.3179454151541,423.14232509583235L-17.401766600087285,505.993132609874L51.340483110398054,541.0120101179928Z" fill="#a1e5ab" stroke="#a1e5ab" fill-opacity="1" stroke-opacity="1"/><path d="M115.3179454151541,423.14232509583235L51.340483110398054,541.0120101179928L239.42494503222406,581.6523761674762Z" fill="#92de9f" stroke="#92de9f" fill-opacity="1" stroke-opacity="1"/><path d="M115.3179454151541,423.14232509583235L239.42494503222406,581.6523761674762L233.37760563008487,359.44803264923394Z" fill="#9ae39f" stroke="#9ae39f" fill-opacity="1" stroke-opacity="1"/><path d="M233.37760563008487,359.44803264923394L239.42494503222406,581.6523761674762L339.4915302749723,529.8084379546344Z" fill="#8adb93" stroke="#8adb93" fill-opacity="1" stroke-opacity="1"/><path d="M233.37760563008487,359.44803264923394L339.4915302749723,529.8084379546344L354.48959682136774,341.2179595325142Z" fill="#98e398" stroke="#98e398" fill-opacity="1" stroke-opacity="1"/><path d="M354.48959682136774,341.2179595325142L339.4915302749723,529.8084379546344L500.00095644034445,408.4640196338296Z" fill="#8bdc8d" stroke="#8bdc8d" fill-opacity="1" stroke-opacity="1"/><path d="M500.00095644034445,408.4640196338296L339.4915302749723,529.8084379546344L554.8005115427077,526.0536550171673Z" fill="#74d280" stroke="#74d280" fill-opacity="1" stroke-opacity="1"/><path d="M500.00095644034445,408.4640196338296L554.8005115427077,526.0536550171673L625.4674044717103,431.91694364883006Z" fill="#70cf7a" stroke="#70cf7a" fill-opacity="1" stroke-opacity="1"/><path d="M625.4674044717103,431.91694364883006L554.8005115427077,526.0536550171673L618.8840295933187,528.2705639954656Z" fill="#61c873" stroke="#61c873" fill-opacity="1" stroke-opacity="1"/><path d="M625.4674044717103,431.91694364883006L618.8840295933187,528.2705639954656L823.6114122904837,467.36534527502954Z" fill="#59c56f" stroke="#59c56f" fill-opacity="1" stroke-opacity="1"/><path d="M625.4674044717103,431.91694364883006L823.6114122904837,467.36534527502954L823.1941071432084,383.7022302020341Z" fill="#5cc570" stroke="#5cc570" fill-opacity="1" stroke-opacity="1"/><path d="M823.1941071432084,383.7022302020341L823.6114122904837,467.36534527502954L987.7387291286141,367.4600769672543Z" fill="#57bd6b" stroke="#57bd6b" fill-opacity="1" stroke-opacity="1"/><path d="M987.7387291286141,367.4600769672543L823.6114122904837,467.36534527502954L926.7334649618715,550.0498811993748Z" fill="#47b362" stroke="#47b362" fill-opacity="1" stroke-opacity="1"/><path d="M987.7387291286141,367.4600769672543L926.7334649618715,550.0498811993748L1121.6873772069812,429.0862783882767Z" fill="#41a85e" stroke="#41a85e" fill-opacity="1" stroke-opacity="1"/><path d="M1121.6873772069812,429.0862783882767L926.7334649618715,550.0498811993748L1034.718175297603,635.5659152939916Z" fill="#2c9b53" stroke="#2c9b53" fill-opacity="1" stroke-opacity="1"/><path d="M1121.6873772069812,429.0862783882767L1034.718175297603,635.5659152939916L1165.507682170719,565.6658492702991Z" fill="#258f4e" stroke="#258f4e" fill-opacity="1" stroke-opacity="1"/><path d="M1121.6873772069812,429.0862783882767L1165.507682170719,565.6658492702991L1278.678999133408,425.6642881035805Z" fill="#338d52" stroke="#338d52" fill-opacity="1" stroke-opacity="1"/><path d="M1278.678999133408,425.6642881035805L1165.507682170719,565.6658492702991L1317.436951836571,555.6608808785677Z" fill="#29804a" stroke="#29804a" fill-opacity="1" stroke-opacity="1"/><path d="M1278.678999133408,425.6642881035805L1317.436951836571,555.6608808785677L1408.7515595834702,516.334569118917Z" fill="#2d7647" stroke="#2d7647" fill-opacity="1" stroke-opacity="1"/><path d="M1278.678999133408,425.6642881035805L1408.7515595834702,516.334569118917L1416.0151307377964,383.21796032600105Z" fill="#3b784c" stroke="#3b784c" fill-opacity="1" stroke-opacity="1"/><path d="M1416.0151307377964,383.21796032600105L1408.7515595834702,516.334569118917L1482.8284423984587,653.2618690934032Z" fill="#296740" stroke="#296740" fill-opacity="1" stroke-opacity="1"/><path d="M-17.401766600087285,505.993132609874L-23.59517952427268,619.9533568974584L51.340483110398054,541.0120101179928Z" fill="#99dea9" stroke="#99dea9" fill-opacity="1" stroke-opacity="1"/><path d="M51.340483110398054,541.0120101179928L-23.59517952427268,619.9533568974584L72.28474767878652,616.8879179935902Z" fill="#91d7a2" stroke="#91d7a2" fill-opacity="1" stroke-opacity="1"/><path d="M51.340483110398054,541.0120101179928L72.28474767878652,616.8879179935902L239.42494503222406,581.6523761674762Z" fill="#8ad699" stroke="#8ad699" fill-opacity="1" stroke-opacity="1"/><path d="M239.42494503222406,581.6523761674762L72.28474767878652,616.8879179935902L237.06004776991904,715.5928304605186Z" fill="#7bcb8c" stroke="#7bcb8c" fill-opacity="1" stroke-opacity="1"/><path d="M239.42494503222406,581.6523761674762L237.06004776991904,715.5928304605186L424.6089793089777,724.0027810726315Z" fill="#6ac07c" stroke="#6ac07c" fill-opacity="1" stroke-opacity="1"/><path d="M239.42494503222406,581.6523761674762L424.6089793089777,724.0027810726315L339.4915302749723,529.8084379546344Z" fill="#6fc87f" stroke="#6fc87f" fill-opacity="1" stroke-opacity="1"/><path d="M339.4915302749723,529.8084379546344L424.6089793089777,724.0027810726315L541.6346401255578,685.6977452617139Z" fill="#5ebe71" stroke="#5ebe71" fill-opacity="1" stroke-opacity="1"/><path d="M339.4915302749723,529.8084379546344L541.6346401255578,685.6977452617139L554.8005115427077,526.0536550171673Z" fill="#62c574" stroke="#62c574" fill-opacity="1" stroke-opacity="1"/><path d="M554.8005115427077,526.0536550171673L541.6346401255578,685.6977452617139L618.8840295933187,528.2705639954656Z" fill="#57bf6b" stroke="#57bf6b" fill-opacity="1" stroke-opacity="1"/><path d="M618.8840295933187,528.2705639954656L541.6346401255578,685.6977452617139L683.041038941592,732.5760224182159Z" fill="#47b261" stroke="#47b261" fill-opacity="1" stroke-opacity="1"/><path d="M618.8840295933187,528.2705639954656L683.041038941592,732.5760224182159L884.4362868927419,662.4529998097569Z" fill="#38ab5a" stroke="#38ab5a" fill-opacity="1" stroke-opacity="1"/><path d="M618.8840295933187,528.2705639954656L884.4362868927419,662.4529998097569L823.6114122904837,467.36534527502954Z" fill="#40b460" stroke="#40b460" fill-opacity="1" stroke-opacity="1"/><path d="M823.6114122904837,467.36534527502954L884.4362868927419,662.4529998097569L926.7334649618715,550.0498811993748Z" fill="#37aa59" stroke="#37aa59" fill-opacity="1" stroke-opacity="1"/><path d="M926.7334649618715,550.0498811993748L884.4362868927419,662.4529998097569L1034.718175297603,635.5659152939916Z" fill="#299a4f" stroke="#299a4f" fill-opacity="1" stroke-opacity="1"/><path d="M1165.507682170719,565.6658492702991L1034.718175297603,635.5659152939916L1154.8638522997499,721.3200240209699Z" fill="#178043" stroke="#178043" fill-opacity="1" stroke-opacity="1"/><path d="M1165.507682170719,565.6658492702991L1154.8638522997499,721.3200240209699L1315.4362269490957,616.6992388945073Z" fill="#18743f" stroke="#18743f" fill-opacity="1" stroke-opacity="1"/><path d="M1165.507682170719,565.6658492702991L1315.4362269490957,616.6992388945073L1317.436951836571,555.6608808785677Z" fill="#207542" stroke="#207542" fill-opacity="1" stroke-opacity="1"/><path d="M1317.436951836571,555.6608808785677L1315.4362269490957,616.6992388945073L1408.7515595834702,516.334569118917Z" fill="#226d40" stroke="#226d40" fill-opacity="1" stroke-opacity="1"/><path d="M1408.7515595834702,516.334569118917L1315.4362269490957,616.6992388945073L1482.8284423984587,653.2618690934032Z" fill="#1d6039" stroke="#1d6039" fill-opacity="1" stroke-opacity="1"/><path d="M-23.59517952427268,619.9533568974584L-65.75966242700815,829.0873060841113L72.28474767878652,616.8879179935902Z" fill="#87c99c" stroke="#87c99c" fill-opacity="1" stroke-opacity="1"/><path d="M72.28474767878652,616.8879179935902L-65.75966242700815,829.0873060841113L134.48579410091043,860.927806450054Z" fill="#75b58f" stroke="#75b58f" fill-opacity="1" stroke-opacity="1"/><path d="M72.28474767878652,616.8879179935902L134.48579410091043,860.927806450054L237.06004776991904,715.5928304605186Z" fill="#71b987" stroke="#71b987" fill-opacity="1" stroke-opacity="1"/><path d="M237.06004776991904,715.5928304605186L134.48579410091043,860.927806450054L234.6520281303674,813.4095132630318Z" fill="#62a87b" stroke="#62a87b" fill-opacity="1" stroke-opacity="1"/><path d="M237.06004776991904,715.5928304605186L234.6520281303674,813.4095132630318L399.8233466874808,806.8342574872077Z" fill="#5ba974" stroke="#5ba974" fill-opacity="1" stroke-opacity="1"/><path d="M237.06004776991904,715.5928304605186L399.8233466874808,806.8342574872077L424.6089793089777,724.0027810726315Z" fill="#58ac70" stroke="#58ac70" fill-opacity="1" stroke-opacity="1"/><path d="M424.6089793089777,724.0027810726315L399.8233466874808,806.8342574872077L523.2770138327032,791.8758824374527Z" fill="#49a164" stroke="#49a164" fill-opacity="1" stroke-opacity="1"/><path d="M424.6089793089777,724.0027810726315L523.2770138327032,791.8758824374527L541.6346401255578,685.6977452617139Z" fill="#4aa863" stroke="#4aa863" fill-opacity="1" stroke-opacity="1"/><path d="M541.6346401255578,685.6977452617139L523.2770138327032,791.8758824374527L683.041038941592,732.5760224182159Z" fill="#3ea15b" stroke="#3ea15b" fill-opacity="1" stroke-opacity="1"/><path d="M683.041038941592,732.5760224182159L523.2770138327032,791.8758824374527L666.9716055225581,875.3819631412625Z" fill="#309153" stroke="#309153" fill-opacity="1" stroke-opacity="1"/><path d="M683.041038941592,732.5760224182159L666.9716055225581,875.3819631412625L820.0859706569463,812.1917557250708Z" fill="#22884b" stroke="#22884b" fill-opacity="1" stroke-opacity="1"/><path d="M683.041038941592,732.5760224182159L820.0859706569463,812.1917557250708L884.4362868927419,662.4529998097569Z" fill="#24924d" stroke="#24924d" fill-opacity="1" stroke-opacity="1"/><path d="M884.4362868927419,662.4529998097569L820.0859706569463,812.1917557250708L1032.1586854755878,810.0022317934781Z" fill="#168243" stroke="#168243" fill-opacity="1" stroke-opacity="1"/><path d="M884.4362868927419,662.4529998097569L1032.1586854755878,810.0022317934781L1034.718175297603,635.5659152939916Z" fill="#198644" stroke="#198644" fill-opacity="1" stroke-opacity="1"/><path d="M1034.718175297603,635.5659152939916L1032.1586854755878,810.0022317934781L1154.8638522997499,721.3200240209699Z" fill="#0d753e" stroke="#0d753e" fill-opacity="1" stroke-opacity="1"/><path d="M1154.8638522997499,721.3200240209699L1032.1586854755878,810.0022317934781L1176.12499890849,842.4420517589897Z" fill="#006036" stroke="#006036" fill-opacity="1" stroke-opacity="1"/><path d="M1154.8638522997499,721.3200240209699L1176.12499890849,842.4420517589897L1281.6483138967305,862.2623958997428Z" fill="#005030" stroke="#005030" fill-opacity="1" stroke-opacity="1"/><path d="M1154.8638522997499,721.3200240209699L1281.6483138967305,862.2623958997428L1315.4362269490957,616.6992388945073Z" fill="#095b34" stroke="#095b34" fill-opacity="1" stroke-opacity="1"/><path d="M1315.4362269490957,616.6992388945073L1281.6483138967305,862.2623958997428L1451.4311716798693,797.3381281178445Z" fill="#05482d" stroke="#05482d" fill-opacity="1" stroke-opacity="1"/><path d="M1315.4362269490957,616.6992388945073L1451.4311716798693,797.3381281178445L1482.8284423984587,653.2618690934032Z" fill="#104f2f" stroke="#104f2f" fill-opacity="1" stroke-opacity="1"/><path d="M1482.8284423984587,653.2618690934032L1451.4311716798693,797.3381281178445L1404.3029190413654,1170.9108877647668Z" fill="#00231e" stroke="#00231e" fill-opacity="1" stroke-opacity="1"/><path d="M-65.75966242700815,829.0873060841113L-107.39188159815967,1023.2838200312108L119.43665952421725,944.8612406942993Z" fill="#799388" stroke="#799388" fill-opacity="1" stroke-opacity="1"/><path d="M-65.75966242700815,829.0873060841113L119.43665952421725,944.8612406942993L134.48579410091043,860.927806450054Z" fill="#709c84" stroke="#709c84" fill-opacity="1" stroke-opacity="1"/><path d="M134.48579410091043,860.927806450054L119.43665952421725,944.8612406942993L201.2463981192559,961.5053828246891Z" fill="#678e76" stroke="#678e76" fill-opacity="1" stroke-opacity="1"/><path d="M134.48579410091043,860.927806450054L201.2463981192559,961.5053828246891L234.6520281303674,813.4095132630318Z" fill="#639676" stroke="#639676" fill-opacity="1" stroke-opacity="1"/><path d="M234.6520281303674,813.4095132630318L201.2463981192559,961.5053828246891L393.2908708881587,1008.5428006667644Z" fill="#5a8868" stroke="#5a8868" fill-opacity="1" stroke-opacity="1"/><path d="M234.6520281303674,813.4095132630318L393.2908708881587,1008.5428006667644L399.8233466874808,806.8342574872077Z" fill="#539066" stroke="#539066" fill-opacity="1" stroke-opacity="1"/><path d="M399.8233466874808,806.8342574872077L393.2908708881587,1008.5428006667644L486.26942572183907,1005.7687880750746Z" fill="#497d58" stroke="#497d58" fill-opacity="1" stroke-opacity="1"/><path d="M399.8233466874808,806.8342574872077L486.26942572183907,1005.7687880750746L523.2770138327032,791.8758824374527Z" fill="#448b5a" stroke="#448b5a" fill-opacity="1" stroke-opacity="1"/><path d="M523.2770138327032,791.8758824374527L486.26942572183907,1005.7687880750746L666.9716055225581,875.3819631412625Z" fill="#398150" stroke="#398150" fill-opacity="1" stroke-opacity="1"/><path d="M666.9716055225581,875.3819631412625L486.26942572183907,1005.7687880750746L690.1926772389561,928.48856812343Z" fill="#317348" stroke="#317348" fill-opacity="1" stroke-opacity="1"/><path d="M666.9716055225581,875.3819631412625L690.1926772389561,928.48856812343L820.0859706569463,812.1917557250708Z" fill="#227a46" stroke="#227a46" fill-opacity="1" stroke-opacity="1"/><path d="M820.0859706569463,812.1917557250708L690.1926772389561,928.48856812343L883.9466011617333,966.4551975019276Z" fill="#1b6c3e" stroke="#1b6c3e" fill-opacity="1" stroke-opacity="1"/><path d="M820.0859706569463,812.1917557250708L883.9466011617333,966.4551975019276L975.6548172980547,934.1611961927265Z" fill="#136438" stroke="#136438" fill-opacity="1" stroke-opacity="1"/><path d="M820.0859706569463,812.1917557250708L975.6548172980547,934.1611961927265L1032.1586854755878,810.0022317934781Z" fill="#0f6a39" stroke="#0f6a39" fill-opacity="1" stroke-opacity="1"/><path d="M1032.1586854755878,810.0022317934781L975.6548172980547,934.1611961927265L1176.12499890849,842.4420517589897Z" fill="#045833" stroke="#045833" fill-opacity="1" stroke-opacity="1"/><path d="M1176.12499890849,842.4420517589897L975.6548172980547,934.1611961927265L1155.4482336435467,1014.3036216963083Z" fill="#00432a" stroke="#00432a" fill-opacity="1" stroke-opacity="1"/><path d="M1176.12499890849,842.4420517589897L1155.4482336435467,1014.3036216963083L1294.6971472911537,919.6707447152585Z" fill="#003625" stroke="#003625" fill-opacity="1" stroke-opacity="1"/><path d="M1176.12499890849,842.4420517589897L1294.6971472911537,919.6707447152585L1281.6483138967305,862.2623958997428Z" fill="#003c27" stroke="#003c27" fill-opacity="1" stroke-opacity="1"/><path d="M1281.6483138967305,862.2623958997428L1294.6971472911537,919.6707447152585L1451.4311716798693,797.3381281178445Z" fill="#003224" stroke="#003224" fill-opacity="1" stroke-opacity="1"/><path d="M1451.4311716798693,797.3381281178445L1294.6971472911537,919.6707447152585L1387.3222027905285,1019.8338335193694Z" fill="#00221e" stroke="#00221e" fill-opacity="1" stroke-opacity="1"/><path d="M1451.4311716798693,797.3381281178445L1387.3222027905285,1019.8338335193694L1404.3029190413654,1170.9108877647668Z" fill="#000a14" stroke="#000a14" fill-opacity="1" stroke-opacity="1"/><path d="M-107.39188159815967,1023.2838200312108L-68.53320652619004,1097.4720547813922L119.43665952421725,944.8612406942993Z" fill="#797f80" stroke="#797f80" fill-opacity="1" stroke-opacity="1"/><path d="M119.43665952421725,944.8612406942993L-68.53320652619004,1097.4720547813922L112.99687410704792,1118.9059783425182Z" fill="#717a75" stroke="#717a75" fill-opacity="1" stroke-opacity="1"/><path d="M119.43665952421725,944.8612406942993L112.99687410704792,1118.9059783425182L201.2463981192559,961.5053828246891Z" fill="#687b6f" stroke="#687b6f" fill-opacity="1" stroke-opacity="1"/><path d="M201.2463981192559,961.5053828246891L112.99687410704792,1118.9059783425182L227.7711865771562,1123.2885882351547Z" fill="#647566" stroke="#647566" fill-opacity="1" stroke-opacity="1"/><path d="M201.2463981192559,961.5053828246891L227.7711865771562,1123.2885882351547L393.2908708881587,1008.5428006667644Z" fill="#5a7160" stroke="#5a7160" fill-opacity="1" stroke-opacity="1"/><path d="M393.2908708881587,1008.5428006667644L227.7711865771562,1123.2885882351547L428.4654015675187,1066.5727475099266Z" fill="#526d55" stroke="#526d55" fill-opacity="1" stroke-opacity="1"/><path d="M393.2908708881587,1008.5428006667644L428.4654015675187,1066.5727475099266L486.26942572183907,1005.7687880750746Z" fill="#486950" stroke="#486950" fill-opacity="1" stroke-opacity="1"/><path d="M486.26942572183907,1005.7687880750746L428.4654015675187,1066.5727475099266L524.3415388930589,1080.2484160847962Z" fill="#436649" stroke="#436649" fill-opacity="1" stroke-opacity="1"/><path d="M486.26942572183907,1005.7687880750746L524.3415388930589,1080.2484160847962L690.1926772389561,928.48856812343Z" fill="#386645" stroke="#386645" fill-opacity="1" stroke-opacity="1"/><path d="M690.1926772389561,928.48856812343L524.3415388930589,1080.2484160847962L723.4932281635702,1140.3006185218692Z" fill="#2d5c3c" stroke="#2d5c3c" fill-opacity="1" stroke-opacity="1"/><path d="M690.1926772389561,928.48856812343L723.4932281635702,1140.3006185218692L837.5030858349055,1123.106903526932Z" fill="#1f5433" stroke="#1f5433" fill-opacity="1" stroke-opacity="1"/><path d="M690.1926772389561,928.48856812343L837.5030858349055,1123.106903526932L883.9466011617333,966.4551975019276Z" fill="#1b5535" stroke="#1b5535" fill-opacity="1" stroke-opacity="1"/><path d="M883.9466011617333,966.4551975019276L837.5030858349055,1123.106903526932L958.7518604379147,1107.2576539311558Z" fill="#13482a" stroke="#13482a" fill-opacity="1" stroke-opacity="1"/><path d="M883.9466011617333,966.4551975019276L958.7518604379147,1107.2576539311558L975.6548172980547,934.1611961927265Z" fill="#0f482c" stroke="#0f482c" fill-opacity="1" stroke-opacity="1"/><path d="M975.6548172980547,934.1611961927265L958.7518604379147,1107.2576539311558L1155.4482336435467,1014.3036216963083Z" fill="#073926" stroke="#073926" fill-opacity="1" stroke-opacity="1"/><path d="M1155.4482336435467,1014.3036216963083L958.7518604379147,1107.2576539311558L1160.8232878614217,1125.9644776862115Z" fill="#012e1e" stroke="#012e1e" fill-opacity="1" stroke-opacity="1"/><path d="M1155.4482336435467,1014.3036216963083L1160.8232878614217,1125.9644776862115L1261.0798378195614,1154.268395025283Z" fill="#002017" stroke="#002017" fill-opacity="1" stroke-opacity="1"/><path d="M1155.4482336435467,1014.3036216963083L1261.0798378195614,1154.268395025283L1387.3222027905285,1019.8338335193694Z" fill="#001616" stroke="#001616" fill-opacity="1" stroke-opacity="1"/><path d="M1155.4482336435467,1014.3036216963083L1387.3222027905285,1019.8338335193694L1294.6971472911537,919.6707447152585Z" fill="#001f1c" stroke="#001f1c" fill-opacity="1" stroke-opacity="1"/><path d="M1387.3222027905285,1019.8338335193694L1261.0798378195614,1154.268395025283L1404.3029190413654,1170.9108877647668Z" fill="#000b0e" stroke="#000b0e" fill-opacity="1" stroke-opacity="1"/><path d="M112.99687410704792,1118.9059783425182L1404.3029190413654,1170.9108877647668L227.7711865771562,1123.2885882351547Z" fill="#366039" stroke="#366039" fill-opacity="1" stroke-opacity="1"/><path d="M227.7711865771562,1123.2885882351547L1404.3029190413654,1170.9108877647668L723.4932281635702,1140.3006185218692Z" fill="#1c512b" stroke="#1c512b" fill-opacity="1" stroke-opacity="1"/><path d="M227.7711865771562,1123.2885882351547L723.4932281635702,1140.3006185218692L524.3415388930589,1080.2484160847962Z" fill="#416642" stroke="#416642" fill-opacity="1" stroke-opacity="1"/><path d="M227.7711865771562,1123.2885882351547L524.3415388930589,1080.2484160847962L428.4654015675187,1066.5727475099266Z" fill="#4d6b4e" stroke="#4d6b4e" fill-opacity="1" stroke-opacity="1"/><path d="M723.4932281635702,1140.3006185218692L1404.3029190413654,1170.9108877647668L1261.0798378195614,1154.268395025283Z" fill="#002918" stroke="#002918" fill-opacity="1" stroke-opacity="1"/><path d="M723.4932281635702,1140.3006185218692L1261.0798378195614,1154.268395025283L837.5030858349055,1123.106903526932Z" fill="#0f4221" stroke="#0f4221" fill-opacity="1" stroke-opacity="1"/><path d="M837.5030858349055,1123.106903526932L1261.0798378195614,1154.268395025283L1160.8232878614217,1125.9644776862115Z" fill="#012f1a" stroke="#012f1a" fill-opacity="1" stroke-opacity="1"/><path d="M837.5030858349055,1123.106903526932L1160.8232878614217,1125.9644776862115L958.7518604379147,1107.2576539311558Z" fill="#0b3c20" stroke="#0b3c20" fill-opacity="1" stroke-opacity="1"/></g></svg>